<?xml version="1.0" standalone="no"?>
<!DOCTYPE svg PUBLIC "-//W3C//DTD SVG 20010904//EN"
 "http://www.w3.org/TR/2001/REC-SVG-20010904/DTD/svg10.dtd">
<svg version="1.0" xmlns="http://www.w3.org/2000/svg"
 width="256.000000pt" height="256.000000pt" viewBox="0 0 256.000000 256.000000"
 preserveAspectRatio="xMidYMid meet">
  <metadata>
    Created by potrace 1.15, written by Peter Selinger 2001-2017
  </metadata>
  <g transform="translate(0.000000,256.000000) scale(0.100000,-0.100000)"
  fill="#28A5A8" stroke="none">
    <path d="M72 2380 c-18 -11 -41 -34 -52 -52 -19 -32 -20 -52 -20 -888 0 -836
1 -856 20 -888 11 -18 34 -41 52 -52 32 -19 52 -20 681 -20 l647 0 0 -195 c0
-107 2 -195 5 -195 3 0 73 45 155 100 82 55 154 100 160 100 6 0 78 -45 160
-100 82 -55 152 -100 155 -100 3 0 5 88 5 195 l0 195 208 0 c231 0 251 5 292
72 19 32 20 52 20 888 0 836 -1 856 -20 888 -11 18 -34 41 -52 52 -32 20 -53
20 -1208 20 -1155 0 -1176 0 -1208 -20z m2328 -940 l0 -800 -180 0 -180 0 0
78 c0 74 2 80 30 107 84 81 130 199 130 335 0 146 -47 257 -148 352 -97 91
-194 128 -333 128 -145 0 -257 -47 -351 -148 -91 -97 -128 -194 -128 -333 0
-135 46 -253 130 -334 28 -27 30 -33 30 -107 l0 -78 -620 0 -620 0 0 800 0
800 1120 0 1120 0 0 -800z m-592 20 c128 -33 224 -161 223 -300 0 -123 -64
-226 -174 -280 -164 -80 -351 -9 -428 164 -58 132 1 309 129 383 78 46 156 56
250 33z m-88 -775 c58 0 117 3 133 8 l27 7 0 -151 0 -151 -27 18 c-16 9 -52
33 -80 52 l-53 35 -52 -35 c-29 -19 -65 -43 -80 -52 l-28 -18 0 151 0 151 28
-7 c15 -5 74 -8 132 -8z"/>
    <path d="M400 1960 l0 -80 880 0 880 0 0 80 0 80 -880 0 -880 0 0 -80z"/>
    <path d="M400 1640 l0 -80 320 0 320 0 0 80 0 80 -320 0 -320 0 0 -80z"/>
  </g>
</svg>
