<?xml version="1.0" standalone="no"?>
<!DOCTYPE svg PUBLIC "-//W3C//DTD SVG 20010904//EN"
 "http://www.w3.org/TR/2001/REC-SVG-20010904/DTD/svg10.dtd">
<svg version="1.0" xmlns="http://www.w3.org/2000/svg"
 width="514.000000pt" height="312.000000pt" viewBox="0 0 514.000000 312.000000"
 preserveAspectRatio="xMidYMid meet">
<metadata>
Created by potrace 1.15, written by Peter Selinger 2001-2017
</metadata>
<g transform="translate(0.000000,312.000000) scale(0.100000,-0.100000)"
fill="#28A5A8" stroke="none">
<path d="M120 2725 l0 -265 115 0 115 0 -2 -882 -3 -883 -112 -3 -113 -3 0
-264 0 -265 650 0 650 0 0 265 0 264 -122 3 -123 3 0 310 0 310 245 6 c305 8
434 29 614 98 206 79 383 238 454 406 69 161 79 394 26 600 -71 275 -289 454
-639 524 -185 36 -299 41 -1037 41 l-718 0 0 -265z m1328 -265 c138 -18 239
-92 283 -209 30 -81 31 -218 1 -284 -68 -152 -183 -207 -429 -207 l-133 0 0
348 c0 192 3 352 7 355 9 10 186 8 271 -3z"/>
<path d="M2710 2725 l0 -264 113 -3 112 -3 0 -878 0 -878 -110 -3 -110 -3 -3
-266 -2 -267 1135 0 1135 0 0 525 0 525 -340 0 -340 0 -2 -256 -3 -256 -257
-1 -258 -2 0 883 0 882 105 0 105 0 0 265 0 265 -640 0 -640 0 0 -265z"/>
</g>
</svg>
